<svg width="170" height="44" viewBox="0 0 170 44" fill="none" xmlns="http://www.w3.org/2000/svg">
<path d="M11.3636 21.9834V21.9563C11.9384 21.7437 12.3955 21.4045 12.7308 20.9433C13.0705 20.482 13.2403 19.9257 13.2403 19.2745C13.2403 18.6459 13.0792 18.0897 12.7569 17.6058C12.4304 17.1219 11.995 16.7511 11.4507 16.4888C10.902 16.231 10.2925 16.0999 9.63061 16.0999H5.17188V27.8398H9.63061C10.2925 27.8398 10.902 27.7087 11.4507 27.4509C11.995 27.1886 12.4304 26.8178 12.7569 26.3339C13.0792 25.85 13.2403 25.2937 13.2403 24.6651C13.2403 24.0139 13.0705 23.4577 12.7308 22.9964C12.3955 22.5351 11.9384 22.196 11.3636 21.9834ZM7.24884 18.0625H9.55223C10.053 18.0625 10.4448 18.1982 10.7279 18.4696C11.0109 18.7409 11.1502 19.0936 11.1502 19.5323C11.1502 19.9664 11.0065 20.3237 10.7192 20.5996C10.4318 20.8754 10.0225 21.0156 9.49127 21.0156H7.24884V18.0625ZM10.7279 25.4701C10.4448 25.7415 10.053 25.8771 9.55223 25.8771H7.24884V22.924H9.49127C10.0225 22.924 10.4318 23.0642 10.7192 23.3401C11.0065 23.616 11.1502 23.9732 11.1502 24.4074C11.1502 24.846 11.0109 25.1988 10.7279 25.4701Z" fill="white"/>
<path d="M14.2188 16.4202H17.9373C19.0824 16.4202 20.0839 16.6598 20.933 17.1392C21.782 17.6186 22.4395 18.2879 22.9011 19.1517C23.3626 20.0154 23.5934 21.0058 23.5934 22.1364C23.5934 23.2625 23.3626 24.2574 22.9011 25.1211C22.4395 25.9849 21.7864 26.6542 20.933 27.1336C20.0839 27.6129 19.0824 27.8526 17.9373 27.8526H14.2188V16.4202ZM17.8458 25.7995C19.0345 25.7995 19.9402 25.4739 20.5629 24.8181C21.1855 24.1624 21.499 23.267 21.499 22.1319C21.499 20.9922 21.1855 20.0968 20.5629 19.4456C19.9359 18.7899 19.0302 18.4643 17.8458 18.4643H16.2957V25.804H17.8458V25.7995Z" fill="white"/>
<path d="M4.31693 2.19348C4.86065 2.19348 5.38562 2.35413 5.82621 2.66083L5.85902 2.6803L5.89183 2.69977L33.9589 19.5193L33.987 19.5388L34.0198 19.5534C35.1495 20.1376 35.3135 21.3692 35.3135 22.0508C35.3135 23.4771 34.3198 24.3972 33.7058 24.8305L5.88715 41.6354L5.85434 41.6549L5.82621 41.6744C5.36218 41.9957 4.71534 42.1417 4.31693 42.1417C3.91383 42.1417 3.27168 41.9957 2.80764 41.6744L2.74671 41.6306L2.68109 41.5965C1.80458 41.1437 1.1718 39.9949 1.1718 38.8703V5.46003C1.1718 4.00931 2.19831 3.08436 2.80764 2.66083C3.25293 2.35413 3.77321 2.19348 4.31693 2.19348ZM4.31693 0.97644C3.56229 0.97644 2.80764 1.20038 2.16081 1.64825C0.862448 2.54399 0 3.89248 0 5.46003V38.8703C0 40.4379 0.862448 42.0103 2.16081 42.6821C2.80764 43.13 3.67009 43.3539 4.32162 43.3539C4.97314 43.3539 5.8309 43.13 6.48242 42.6821L34.3339 25.8625C35.6276 24.9668 36.4947 23.6183 36.4947 22.0508C36.4947 20.4832 35.8479 19.1347 34.5495 18.4629L6.47774 1.64825C5.8309 1.20038 5.07626 0.97644 4.31693 0.97644Z" fill="url(#paint0_linear_1_352)"/>
<path fill-rule="evenodd" clip-rule="evenodd" d="M46.6252 21.6618C45.6248 20.8575 44.9706 19.9533 44.6676 18.9442C44.3645 17.9351 44.3597 16.9859 44.6531 16.0967C44.9465 15.2074 45.5189 14.4531 46.3751 13.8386C47.2313 13.2192 48.3183 12.9094 49.6315 12.9094H60.5646C61.565 12.9094 62.3779 13.7537 62.3779 14.7928V14.7978C62.3779 15.8369 61.565 16.6812 60.5646 16.6812H49.6315C49.2755 16.6812 48.9629 16.7311 48.6935 16.826C48.4194 16.9259 48.2318 17.0608 48.1308 17.2307C48.0249 17.4055 48.0201 17.6104 48.1163 17.8501C48.2077 18.0899 48.4338 18.3497 48.7897 18.6295L57.4333 25.4286C58.4337 26.2079 59.1168 27.0971 59.4823 28.0963C59.8479 29.0954 59.9104 30.0296 59.6699 30.9088C59.4294 31.7881 58.9051 32.5224 58.0874 33.1219C57.2745 33.7164 56.1971 34.0162 54.8599 34.0162H43.5516C42.5512 34.0162 41.7383 33.1719 41.7383 32.1328V32.1278C41.7383 31.0887 42.5512 30.2444 43.5516 30.2444H54.8599C55.6728 30.2444 56.1249 30.0896 56.2067 29.7748C56.2885 29.4601 55.9855 29.0455 55.2976 28.5209L46.6252 21.6618ZM62.687 17.8392C63.1054 16.855 63.6682 15.9958 64.3801 15.2714C65.092 14.547 65.9241 13.9725 66.8861 13.5479C67.8481 13.1232 68.8774 12.9134 69.9885 12.9134H77.2227C78.2232 12.9134 79.0361 13.7577 79.0361 14.7968V14.8018C79.0361 15.8409 78.2232 16.6852 77.2227 16.6852H69.9837C69.3777 16.6852 68.8197 16.8001 68.3098 17.0299C67.8 17.2597 67.343 17.5644 66.9486 17.9441C66.5542 18.3237 66.2464 18.7783 66.0251 19.2979C65.8038 19.8174 65.698 20.372 65.698 20.9615V28.2651C65.698 28.8097 65.8952 29.2743 66.2945 29.6689C66.6889 30.0586 67.1699 30.2584 67.7327 30.2584H77.2227C78.2232 30.2584 79.0361 31.1027 79.0361 32.1418V32.1468C79.0361 33.1859 78.2232 34.0301 77.2227 34.0301H67.7327C66.939 34.0301 66.1983 33.8803 65.5104 33.5755C64.8226 33.2708 64.2214 32.8612 63.7115 32.3416C63.2017 31.8221 62.7976 31.2076 62.5042 30.5032C62.2108 29.7988 62.0665 29.0545 62.0665 28.2751V20.9764C62.0617 19.8724 62.2685 18.8283 62.687 17.8392ZM83.0602 15.2364C82.358 15.9858 81.8145 16.88 81.4297 17.9191C81.0449 18.9632 80.8525 20.1122 80.8477 21.3661V32.1318C80.8477 33.1709 81.6605 34.0152 82.661 34.0152H82.6658C83.6663 34.0152 84.4792 33.1709 84.4792 32.1318V21.3661C84.4792 19.9773 84.8832 18.8533 85.6865 17.984C86.4898 17.1198 87.5528 16.6852 88.8659 16.6852H92.281C93.2815 16.6852 94.0944 15.8409 94.0944 14.8018V14.7968C94.0944 13.7577 93.2815 12.9134 92.281 12.9134H88.8659C87.6778 12.9134 86.586 13.1133 85.5951 13.5129C84.6043 13.9126 83.7577 14.4871 83.0602 15.2364ZM99.0035 29.4991C99.7153 29.9986 100.504 30.2484 101.384 30.2484H109.215C110.216 30.2484 111.028 31.0927 111.028 32.1318V32.1368C111.028 33.1759 110.216 34.0202 109.215 34.0202H101.384C100.321 34.0202 99.3161 33.8053 98.3782 33.3707C97.4402 32.9361 96.6129 32.3566 95.9058 31.6322C95.194 30.9078 94.636 30.0536 94.232 29.0794C93.8231 28.1053 93.6211 27.0612 93.6211 25.9571V21.0464C93.6211 19.9423 93.8231 18.8932 94.232 17.9091C94.6408 16.925 95.1988 16.0607 95.9058 15.3213C96.6129 14.587 97.4402 13.9975 98.3782 13.5629C99.3161 13.1282 100.321 12.9134 101.384 12.9134H106.175C107.426 12.9134 108.45 13.2132 109.244 13.8077C110.038 14.4021 110.557 15.1415 110.807 16.0207C111.057 16.9 111.014 17.8292 110.682 18.8183C110.35 19.8075 109.701 20.7017 108.739 21.501L99.0035 29.4991ZM97.2526 26.082L106.521 18.5685C106.772 18.3737 106.969 18.1639 107.118 17.9341C107.262 17.7043 107.33 17.4995 107.32 17.3146C107.31 17.1298 107.214 16.9799 107.036 16.86C106.858 16.7401 106.57 16.6802 106.175 16.6802H101.384C100.822 16.6802 100.288 16.7951 99.7875 17.0199C99.2873 17.2497 98.8495 17.5544 98.4744 17.9491C98.0992 18.3387 97.801 18.7983 97.5797 19.3329C97.3585 19.8624 97.2526 20.4319 97.2526 21.0414V26.082ZM120.24 30.2484C119.36 30.2484 118.566 29.9986 117.859 29.4991L127.594 21.501C128.556 20.7017 129.206 19.8025 129.538 18.8183C129.869 17.8292 129.913 16.9 129.663 16.0207C129.413 15.1415 128.893 14.4021 128.099 13.8077C127.306 13.2132 126.281 12.9134 125.031 12.9134H120.24C119.177 12.9134 118.172 13.1282 117.234 13.5629C116.296 13.9975 115.473 14.587 114.761 15.3213C114.054 16.0607 113.496 16.925 113.087 17.9091C112.679 18.8932 112.477 19.9423 112.477 21.0464V25.9571C112.477 27.0612 112.679 28.1053 113.087 29.0794C113.491 30.0536 114.049 30.9078 114.761 31.6322C115.468 32.3566 116.296 32.9361 117.234 33.3707C118.172 33.8053 119.177 34.0202 120.24 34.0202H128.071C129.071 34.0202 129.884 33.1759 129.884 32.1368V32.1318C129.884 31.0927 129.071 30.2484 128.071 30.2484H120.24ZM125.377 18.5685L116.108 26.082V21.0414C116.108 20.4319 116.214 19.8624 116.435 19.3329C116.656 18.7983 116.955 18.3387 117.33 17.9491C117.705 17.5544 118.143 17.2497 118.643 17.0199C119.143 16.7951 119.677 16.6802 120.24 16.6802H125.031C125.425 16.6802 125.714 16.7401 125.892 16.86C126.07 16.9799 126.166 17.1298 126.175 17.3146C126.185 17.4995 126.118 17.7043 125.973 17.9341C125.824 18.1639 125.627 18.3737 125.377 18.5685ZM140.998 12.9134C142.21 12.9134 143.302 13.1133 144.288 13.5129C145.269 13.9126 146.111 14.4871 146.808 15.2364C147.506 15.9858 148.049 16.88 148.439 17.9191C148.824 18.9582 149.016 20.1072 149.016 21.3661V30.2444H161.528C162.341 30.2444 162.793 30.0896 162.875 29.7748C162.956 29.4601 162.653 29.0455 161.966 28.5209L153.288 21.6618C152.288 20.8575 151.634 19.9533 151.331 18.9442C151.028 17.9351 151.023 16.9859 151.316 16.0967C151.61 15.2074 152.182 14.4531 153.038 13.8386C153.894 13.2192 154.982 12.9094 156.295 12.9094H167.228C168.228 12.9094 169.041 13.7537 169.041 14.7928V14.7978C169.041 15.8369 168.228 16.6812 167.228 16.6812H156.295C155.939 16.6812 155.626 16.7311 155.357 16.826C155.087 16.9259 154.9 17.0608 154.794 17.2307C154.688 17.4055 154.683 17.6104 154.779 17.8501C154.871 18.0899 155.097 18.3497 155.453 18.6295L164.096 25.4286C165.097 26.2079 165.78 27.0971 166.145 28.0963C166.511 29.0954 166.574 30.0296 166.333 30.9088C166.093 31.7881 165.563 32.5224 164.751 33.1219C163.938 33.7164 162.86 34.0162 161.528 34.0162H148.406V34.0152H145.385V21.3661C145.385 19.9773 144.981 18.8533 144.177 17.984C143.374 17.1198 142.316 16.6852 140.998 16.6852H137.333C136.539 16.6852 135.943 16.925 135.548 17.3995C135.154 17.8741 134.952 18.5485 134.952 19.4178V32.1368C134.952 33.1759 134.139 34.0202 133.138 34.0202H133.134C132.133 34.0202 131.32 33.1759 131.32 32.1368V19.4178C131.32 18.5086 131.46 17.6543 131.744 16.865C132.027 16.0757 132.427 15.3863 132.951 14.8018C133.47 14.2173 134.105 13.7577 134.846 13.418C135.587 13.0833 136.419 12.9134 137.338 12.9134H140.998Z" fill="url(#paint1_diamond_1_352)"/>
<defs>
<linearGradient id="paint0_linear_1_352" x1="-10.0337" y1="22.1652" x2="42.9272" y2="22.1651" gradientUnits="userSpaceOnUse">
<stop stop-color="#F41B3B"/>
<stop offset="1" stop-color="#1884F7"/>
</linearGradient>
<radialGradient id="paint1_diamond_1_352" cx="0" cy="0" r="1" gradientUnits="userSpaceOnUse" gradientTransform="translate(181.007 34.0301) rotate(-166.076) scale(171.04 3738.21)">
<stop offset="0.0364583" stop-color="#F41B3B"/>
<stop offset="0.369792" stop-color="#AE46B9"/>
<stop offset="0.630208" stop-color="#8F76FC"/>
<stop offset="1" stop-color="#1884F7"/>
</radialGradient>
</defs>
</svg>
